<svg viewBox="0 0 20 20" xmlns="http://www.w3.org/2000/svg" xmlns:xlink="http://www.w3.org/1999/xlink" width="20.000000" height="20.000000" fill="none">
	<defs>
		<clipPath id="clipPath_8">
			<rect width="20.000000" height="20.000000" x="0.000000" y="0.000000" rx="8.000000" fill="none" />
		</clipPath>
		<clipPath id="clipPath_9">
			<rect width="20.000000" height="20.000000" x="0.000000" y="0.000000" fill="none" />
		</clipPath>
	</defs>
	<rect id="IconSet" width="20.000000" height="20.000000" x="0.000000" y="0.000000" rx="8.000000" />
	<g id="Add">
		<rect id="Add" width="20.000000" height="20.000000" x="0.000000" y="0.000000" />
		<path id="Vector" d="M10.625 4.375C10.625 4.02982 10.3452 3.75 10 3.75C9.65482 3.75 9.375 4.02982 9.375 4.375L9.375 9.375L4.375 9.375C4.02982 9.375 3.75 9.65482 3.75 10C3.75 10.3452 4.02982 10.625 4.375 10.625L9.375 10.625L9.375 15.625C9.375 15.9702 9.65482 16.25 10 16.25C10.3452 16.25 10.625 15.9702 10.625 15.625L10.625 10.625L15.625 10.625C15.9702 10.625 16.25 10.3452 16.25 10C16.25 9.65482 15.9702 9.375 15.625 9.375L10.625 9.375L10.625 4.375Z" fill="currentColor" fill-rule="nonzero" />
	</g>
</svg>
