<svg viewBox="0 0 20 20" xmlns="http://www.w3.org/2000/svg" xmlns:xlink="http://www.w3.org/1999/xlink" width="20.000000" height="20.000000" fill="none">
	<defs>
		<clipPath id="clipPath_4">
			<rect width="20.000000" height="20.000000" x="0.000000" y="0.000000" rx="8.000000" fill="none" />
		</clipPath>
		<clipPath id="clipPath_5">
			<rect width="20.000000" height="20.000000" x="0.000000" y="0.000000" fill="none" />
		</clipPath>
	</defs>
	<rect id="IconSet" width="20.000000" height="20.000000" x="0.000000" y="0.000000" rx="8.000000" />
	<g id="ArrowLineLeft">
		<rect id="ArrowLineLeft" width="20.000000" height="20.000000" x="0.000000" y="0.000000" />
		<path id="Vector" d="M12.9254 4.55806C13.1915 4.80214 13.1915 5.19786 12.9254 5.44194L8.4375 9.55806C8.17138 9.80214 8.17138 10.1979 8.4375 10.4419L12.9254 14.5581C13.1915 14.8021 13.1915 15.1979 12.9254 15.4419C12.6593 15.686 12.2278 15.686 11.9617 15.4419L7.47378 11.3258C6.67541 10.5936 6.67541 9.40641 7.47378 8.67418L11.9617 4.55806C12.2278 4.31398 12.6593 4.31398 12.9254 4.55806Z" fill="currentColor" fill-rule="evenodd" />
	</g>
</svg>
