<svg viewBox="0 0 20 20" xmlns="http://www.w3.org/2000/svg" xmlns:xlink="http://www.w3.org/1999/xlink" width="20.000000" height="20.000000" fill="none">
	<defs>
		<clipPath id="clipPath_6">
			<rect width="20.000000" height="20.000000" x="0.000000" y="0.000000" rx="8.000000" fill="none" />
		</clipPath>
		<clipPath id="clipPath_7">
			<rect width="20.000000" height="20.000000" x="0.000000" y="0.000000" fill="none" />
		</clipPath>
	</defs>
	<rect id="IconSet" width="20.000000" height="20.000000" x="0.000000" y="0.000000" rx="8.000000" />
	<g id="ArrowLineRight">
		<rect id="ArrowLineRight" width="20.000000" height="20.000000" x="0.000000" y="0.000000" />
		<path id="Vector" d="M7.07459 15.4419C6.80847 15.1979 6.80847 14.8021 7.07459 14.5581L11.5625 10.4419C11.8286 10.1979 11.8286 9.80214 11.5625 9.55806L7.07459 5.44194C6.80847 5.19786 6.80847 4.80214 7.07459 4.55806C7.34072 4.31398 7.77219 4.31398 8.03831 4.55806L12.5262 8.67418C13.3246 9.40641 13.3246 10.5936 12.5262 11.3258L8.03831 15.4419C7.77219 15.686 7.34072 15.686 7.07459 15.4419Z" fill="currentColor" fill-rule="evenodd" />
	</g>
</svg>
