<svg viewBox="0 0 16 16" xmlns="http://www.w3.org/2000/svg" xmlns:xlink="http://www.w3.org/1999/xlink" width="16.000000" height="16.000000" fill="none">
	<defs>
		<clipPath id="clipPath_2">
			<rect width="16.000000" height="16.000000" x="0.000000" y="0.000000" rx="8.000000" fill="none" />
		</clipPath>
		<clipPath id="clipPath_3">
			<rect width="16.000000" height="16.000000" x="0.000000" y="0.000000" fill="none" />
		</clipPath>
	</defs>
	<rect id="IconSet" width="16.000000" height="16.000000" x="0.000000" y="0.000000" rx="8.000000" />
	<g id="CalendarBlank">
		<rect id="CalendarBlank" width="16.000000" height="16.000000" x="0.000000" y="0.000000" />
		<path id="Vector" d="M13 2L11.5 2L11.5 1.5C11.5 1.36739 11.4473 1.24021 11.3536 1.14645C11.2598 1.05268 11.1326 1 11 1C10.8674 1 10.7402 1.05268 10.6464 1.14645C10.5527 1.24021 10.5 1.36739 10.5 1.5L10.5 2L5.5 2L5.5 1.5C5.5 1.36739 5.44732 1.24021 5.35355 1.14645C5.25979 1.05268 5.13261 1 5 1C4.86739 1 4.74021 1.05268 4.64645 1.14645C4.55268 1.24021 4.5 1.36739 4.5 1.5L4.5 2L3 2C2.73478 2 2.48043 2.10536 2.29289 2.29289C2.10536 2.48043 2 2.73478 2 3L2 13C2 13.2652 2.10536 13.5196 2.29289 13.7071C2.48043 13.8946 2.73478 14 3 14L13 14C13.2652 14 13.5196 13.8946 13.7071 13.7071C13.8946 13.5196 14 13.2652 14 13L14 3C14 2.73478 13.8946 2.48043 13.7071 2.29289C13.5196 2.10536 13.2652 2 13 2ZM4.5 3L4.5 3.5C4.5 3.63261 4.55268 3.75979 4.64645 3.85355C4.74021 3.94732 4.86739 4 5 4C5.13261 4 5.25979 3.94732 5.35355 3.85355C5.44732 3.75979 5.5 3.63261 5.5 3.5L5.5 3L10.5 3L10.5 3.5C10.5 3.63261 10.5527 3.75979 10.6464 3.85355C10.7402 3.94732 10.8674 4 11 4C11.1326 4 11.2598 3.94732 11.3536 3.85355C11.4473 3.75979 11.5 3.63261 11.5 3.5L11.5 3L13 3L13 5L3 5L3 3L4.5 3ZM13 13L3 13L3 6L13 6L13 13Z" fill="currentColor" fill-rule="nonzero" />
	</g>
</svg>
