<svg viewBox="0 0 16 16" xmlns="http://www.w3.org/2000/svg" xmlns:xlink="http://www.w3.org/1999/xlink" width="16.000000" height="16.000000" fill="none">
	<defs>
		<clipPath id="clipPath_20">
			<rect width="16.000000" height="16.000000" x="0.000000" y="0.000000" rx="8.000000" fill="currentColor" />
		</clipPath>
		<clipPath id="clipPath_21">
			<rect width="16.000000" height="16.000000" x="0.000000" y="0.000000" fill="currentColor" />
		</clipPath>
	</defs>
	<rect id="IconSet" width="16.000000" height="16.000000" x="0.000000" y="0.000000" rx="8.000000" />
	<g id="ArrowLineDown">
		<rect id="ArrowLineDown" width="16.000000" height="16.000000" x="0.000000" y="0.000000" />
		<path id="Vector" d="M3.64645 5.65967C3.84171 5.44677 4.15829 5.44677 4.35355 5.65967L7.64645 9.25C7.84171 9.4629 8.15829 9.4629 8.35355 9.25L11.6464 5.65968C11.8417 5.44678 12.1583 5.44678 12.3536 5.65968C12.5488 5.87257 12.5488 6.21775 12.3536 6.43065L9.06066 10.021C8.47487 10.6597 7.52513 10.6597 6.93934 10.021L3.64645 6.43065C3.45118 6.21775 3.45118 5.87257 3.64645 5.65967Z" fill="currentColor" fill-opacity="0.200000003" fill-rule="evenodd" />
	</g>
</svg>
