<svg viewBox="0 0 20 20" xmlns="http://www.w3.org/2000/svg" xmlns:xlink="http://www.w3.org/1999/xlink" width="20.000000" height="20.000000" fill="none">
	<defs>
		<clipPath id="clipPath_0">
			<rect width="20.000000" height="20.000000" x="0.000000" y="0.000000" rx="8.000000" fill="none" />
		</clipPath>
		<clipPath id="clipPath_1">
			<rect width="16.000000" height="16.000000" x="0.000000" y="0.000000" fill="none" />
		</clipPath>
	</defs>
	<rect id="IconSet" width="20.000000" height="20.000000" x="0.000000" y="0.000000" rx="8.000000" />
	<g id="DotsThreeOutlineVertical">
		<rect id="DotsThreeOutlineVertical" width="16.000000" height="16.000000" x="0.000000" y="0.000000" />
		<path id="Vector" d="M4 7C4.55228 7 5 7.44772 5 8C5 8.55229 4.55228 9 4 9C3.44772 9 3 8.55229 3 8C3 7.44772 3.44772 7 4 7ZM8 7C8.55228 7 9 7.44772 9 8C9 8.55229 8.55228 9 8 9C7.44772 9 7 8.55229 7 8C7 7.44772 7.44772 7 8 7ZM12 7C12.5523 7 13 7.44772 13 8C13 8.55229 12.5523 9 12 9C11.4477 9 11 8.55229 11 8C11 7.44772 11.4477 7 12 7Z" fill="currentColor" fill-rule="evenodd" />
	</g>
</svg>
