<svg viewBox="0 0 20 20" xmlns="http://www.w3.org/2000/svg" xmlns:xlink="http://www.w3.org/1999/xlink" width="20.000000" height="20.000000" fill="none">
	<defs>
		<clipPath id="clipPath_6">
			<rect width="20.000000" height="20.000000" x="0.000000" y="0.000000" rx="8.000000" fill="currentColor" />
		</clipPath>
		<clipPath id="clipPath_7">
			<rect width="20.000000" height="20.000000" x="0.000000" y="0.000000" fill="currentColor" />
		</clipPath>
	</defs>
	<rect id="IconSet" width="20.000000" height="20.000000" x="0.000000" y="0.000000" rx="8.000000" />
	<g id="FolderNotch">
		<rect id="FolderNotch" width="20.000000" height="20.000000" x="0.000000" y="0.000000" />
		<path id="Vector" d="M10 6.25L7.66641 8C7.55822 8.08114 7.42664 8.125 7.29141 8.125L2.5 8.125L2.5 5C2.5 4.83424 2.56585 4.67527 2.68306 4.55806C2.80027 4.44085 2.95924 4.375 3.125 4.375L7.29141 4.375C7.42664 4.375 7.55822 4.41886 7.66641 4.5L10 6.25Z" fill="currentColor" fill-opacity="0.100000001" fill-rule="nonzero" />
		<path id="Vector" d="M16.875 5.625L10.2086 5.625L8.04141 4C7.82472 3.83832 7.56176 3.75067 7.29141 3.75L3.125 3.75C2.79348 3.75 2.47554 3.8817 2.24112 4.11612C2.0067 4.35054 1.875 4.66848 1.875 5L1.875 15.625C1.875 15.9565 2.0067 16.2745 2.24112 16.5089C2.47554 16.7433 2.79348 16.875 3.125 16.875L16.875 16.875C17.2065 16.875 17.5245 16.7433 17.7589 16.5089C17.9933 16.2745 18.125 15.9565 18.125 15.625L18.125 6.875C18.125 6.54348 17.9933 6.22554 17.7589 5.99112C17.5245 5.7567 17.2065 5.625 16.875 5.625ZM3.125 5L7.29141 5L8.95859 6.25L7.29141 7.5L3.125 7.5L3.125 5ZM16.875 15.625L3.125 15.625L3.125 8.75L7.29141 8.75C7.56176 8.74933 7.82472 8.66168 8.04141 8.5L10.2086 6.875L16.875 6.875L16.875 15.625Z" fill="currentColor" fill-rule="nonzero" />
	</g>
</svg>
