<svg viewBox="0 0 20 20" xmlns="http://www.w3.org/2000/svg" xmlns:xlink="http://www.w3.org/1999/xlink" width="20.000000" height="20.000000" fill="none">
	<defs>
		<clipPath id="clipPath_12">
			<rect width="20.000000" height="20.000000" x="0.000000" y="0.000000" rx="8.000000" fill="none" />
		</clipPath>
		<clipPath id="clipPath_13">
			<rect width="20.000000" height="20.000000" x="0.000000" y="0.000000" fill="none" />
		</clipPath>
	</defs>
	<rect id="IconSet" width="20.000000" height="20.000000" x="0.000000" y="0.000000" rx="8.000000" />
	<g id="ArrowsDownUp">
		<rect id="ArrowsDownUp" width="20.000000" height="20.000000" x="0.000000" y="0.000000" />
		<path id="Vector" d="M5.625 14.7411L5.625 3.75C5.625 3.40482 5.90482 3.125 6.25 3.125C6.59518 3.125 6.875 3.40482 6.875 3.75L6.875 14.7411L8.30806 13.3081C8.42527 13.1908 8.58424 13.125 8.75 13.125C8.91576 13.125 9.07473 13.1908 9.19194 13.3081C9.30915 13.4253 9.375 13.5842 9.375 13.75C9.375 13.9158 9.30892 14.075 9.19171 14.1922L6.69194 16.6919C6.68965 16.6942 6.68735 16.6965 6.68503 16.6988C6.57251 16.8078 6.4191 16.875 6.25 16.875C6.0809 16.875 5.92749 16.8078 5.81497 16.6988C5.81265 16.6965 5.81035 16.6942 5.80806 16.6919L3.30806 14.1919C3.19085 14.0747 3.125 13.9158 3.125 13.75C3.125 13.5842 3.19085 13.4253 3.30806 13.3081C3.42527 13.1908 3.58424 13.125 3.75 13.125C3.91576 13.125 4.07473 13.1908 4.19194 13.3081L5.625 14.7411ZM15.8077 6.69162C15.9249 6.80883 16.0842 6.875 16.25 6.875C16.4158 6.875 16.5747 6.80915 16.6919 6.69194C16.8092 6.57473 16.875 6.41576 16.875 6.25C16.875 6.08424 16.8092 5.92527 16.6919 5.80806L14.1919 3.30806C14.1897 3.30577 14.1873 3.3035 14.185 3.30125C14.0685 3.1883 13.9125 3.125 13.75 3.125C13.5875 3.125 13.4315 3.1883 13.315 3.30125C13.3127 3.3035 13.3103 3.30577 13.3081 3.30806L10.8081 5.80806C10.6908 5.92527 10.625 6.08424 10.625 6.25C10.625 6.26001 10.6252 6.27002 10.6257 6.28002C10.6332 6.43522 10.6982 6.58207 10.8081 6.69194C10.9253 6.80915 11.0842 6.875 11.25 6.875C11.4158 6.875 11.5747 6.80915 11.6919 6.69194L13.125 5.25888L13.125 16.25C13.125 16.5952 13.4048 16.875 13.75 16.875C14.0952 16.875 14.375 16.5952 14.375 16.25L14.375 5.25888L15.8077 6.69162Z" fill="currentColor" fill-rule="evenodd" />
	</g>
</svg>
